# xmcd
#
# Track frame offsets: 
#        150
#        3910
#        17232
#        39737
#        58647
#        71651
#        93064
#        112414
#        131914
#        162177
#        177027
#        197556
#        218660
#        251726
#
# Disc length: 3707 seconds
#
# Revision: 0
# Processed by: cddbd v1.5.2PL0 Copyright (c) Steve Scherf et al.
# Submitted via: ExactAudioCopyFreeDBPlugin 1.0
#
DISCID=c20e790e
DTITLE=The O'Dometers - Straight From The Horses Mouth
DYEAR=2013
DGENRE=Country
TTITLE0=Intro
TTITLE1=Love Letter
TTITLE2=Driving Through Saskatchewan
TTITLE3=My Love Come With Me To Ireland
TTITLE4=Have You Ever Answered A Prayer?
TTITLE5=I'd Invite You To Sing Along
TTITLE6=Honest Ernest
TTITLE7=Always On Thin Ice
TTITLE8=The Mad Trapper From Rat River
TTITLE9=Chinese Eggplant Blues
TTITLE10=Ode To George Jones
TTITLE11=In The Garden
TTITLE12=Point Your Trigger Finger At His Gun
TTITLE13=New Year Coming
EXTD=
EXTT0=
EXTT1=
EXTT2=
EXTT3=
EXTT4=
EXTT5=
EXTT6=
EXTT7=
EXTT8=
EXTT9=
EXTT10=
EXTT11=
EXTT12=
EXTT13=
PLAYORDER=
